<?xml version="1.0" encoding="UTF-8"?>
<svg id="Layer_1" data-name="Layer 1" xmlns="http://www.w3.org/2000/svg" viewBox="0 0 1000 1000">
  <defs>
    <style>
      .cls-1 {
        fill: #1d1d1b;
        stroke: #1d1d1b;
        stroke-miterlimit: 10;
      }
    </style>
  </defs>
  <circle class="cls-1" cx="175.72" cy="364.31" r="3.69"/>
  <circle class="cls-1" cx="156.2" cy="414.71" r="5.25"/>
  <circle class="cls-1" cx="178.65" cy="397.48" r="5.12"/>
  <circle class="cls-1" cx="131.49" cy="484.87" r="5.37"/>
  <circle class="cls-1" cx="171.63" cy="551.26" r="5.06"/>
  <circle class="cls-1" cx="174.62" cy="645.55" r="6.06"/>
  <circle class="cls-1" cx="228.45" cy="704.83" r="4.88"/>
  <circle class="cls-1" cx="271.74" cy="778.45" r="6.37"/>
  <circle class="cls-1" cx="333.95" cy="787.24" r="5.12"/>
  <circle class="cls-1" cx="444.05" cy="846.87" r="4.5"/>
  <circle class="cls-1" cx="494.37" cy="763.38" r="6.62"/>
  <circle class="cls-1" cx="564.1" cy="854.99" r="5.75"/>
  <circle class="cls-1" cx="575.03" cy="820.56" r="5.25"/>
  <circle class="cls-1" cx="683.68" cy="794.08" r="4.63"/>
  <circle class="cls-1" cx="752.74" cy="769.38" r="6"/>
  <circle class="cls-1" cx="755.19" cy="724.83" r="4.75"/>
  <circle class="cls-1" cx="640.66" cy="737.45" r="7.12"/>
  <circle class="cls-1" cx="572.78" cy="669.08" r="7.5"/>
  <circle class="cls-1" cx="719.1" cy="621.54" r="8.87"/>
  <circle class="cls-1" cx="785.04" cy="669.5" r="5.75"/>
  <circle class="cls-1" cx="827.33" cy="625.04" r="5.38"/>
  <circle class="cls-1" cx="802.62" cy="583.8" r="5.25"/>
  <circle class="cls-1" cx="427.69" cy="716.14" r="5.38"/>
  <circle class="cls-1" cx="355.96" cy="688.76" r="9.62"/>
  <circle class="cls-1" cx="320.89" cy="634.02" r="7.93"/>
  <circle class="cls-1" cx="458.17" cy="611.65" r="9.62"/>
  <circle class="cls-1" cx="260.14" cy="579.02" r="8"/>
  <circle class="cls-1" cx="304.79" cy="499.88" r="9"/>
  <circle class="cls-1" cx="229.44" cy="476.15" r="10"/>
  <circle class="cls-1" cx="270.47" cy="397.48" r="5.12"/>
  <circle class="cls-1" cx="289.11" cy="325.97" r="10.5"/>
  <circle class="cls-1" cx="372.48" cy="384.99" r="10.69"/>
  <circle class="cls-1" cx="430.72" cy="501.91" r="11.03"/>
  <circle class="cls-1" cx="326.7" cy="208.07" r="4.91"/>
  <circle class="cls-1" cx="264.41" cy="219.21" r="4.2"/>
  <circle class="cls-1" cx="260.88" cy="253.51" r="5"/>
  <circle class="cls-1" cx="213.4" cy="281.81" r="4.06"/>
  <circle class="cls-1" cx="182.86" cy="319.84" r="4.37"/>
  <circle class="cls-1" cx="682.92" cy="507.2" r="8.62"/>
  <circle class="cls-1" cx="558.12" cy="521.45" r="9.87"/>
  <circle class="cls-1" cx="107.11" cy="528" r="3.87"/>
  <circle class="cls-1" cx="124.61" cy="609" r="3.87"/>
  <circle class="cls-1" cx="160.11" cy="691.5" r="3.87"/>
  <circle class="cls-1" cx="189.61" cy="743" r="3.87"/>
  <circle class="cls-1" cx="235.04" cy="784.83" r="3.87"/>
  <circle class="cls-1" cx="304.11" cy="838.5" r="3.87"/>
  <circle class="cls-1" cx="389.61" cy="873.5" r="3.87"/>
  <circle class="cls-1" cx="519.61" cy="892" r="3.87"/>
  <circle class="cls-1" cx="642.11" cy="864" r="3.87"/>
  <circle class="cls-1" cx="738.11" cy="814.5" r="3.87"/>
  <circle class="cls-1" cx="806.61" cy="743.5" r="3.87"/>
  <circle class="cls-1" cx="834.61" cy="706.5" r="3.87"/>
  <circle class="cls-1" cx="878.11" cy="607.5" r="3.87"/>
  <circle class="cls-1" cx="889.61" cy="548.5" r="3.87"/>
  <circle class="cls-1" cx="878.11" cy="399" r="3.87"/>
  <circle class="cls-1" cx="889.61" cy="470" r="3.87"/>
  <circle class="cls-1" cx="863.61" cy="354.5" r="3.87"/>
  <circle class="cls-1" cx="841.61" cy="308.5" r="3.87"/>
  <circle class="cls-1" cx="787.11" cy="241" r="3.87"/>
  <circle class="cls-1" cx="733.61" cy="186" r="3.87"/>
  <circle class="cls-1" cx="650.11" cy="140.5" r="3.87"/>
  <circle class="cls-1" cx="571.11" cy="117.5" r="3.87"/>
  <circle class="cls-1" cx="494.61" cy="109.75" r="3.87"/>
  <circle class="cls-1" cx="418.61" cy="118.75" r="3.87"/>
  <circle class="cls-1" cx="331.61" cy="146.25" r="3.87"/>
  <circle class="cls-1" cx="268.61" cy="186.75" r="3.87"/>
  <circle class="cls-1" cx="204.61" cy="243.75" r="3.87"/>
  <circle class="cls-1" cx="174.61" cy="282.25" r="3.87"/>
  <circle class="cls-1" cx="137.61" cy="356.75" r="3.87"/>
  <circle class="cls-1" cx="110.98" cy="443.75" r="3.87"/>
  <circle class="cls-1" cx="696.16" cy="240.81" r="7"/>
  <ellipse class="cls-1" cx="733.61" cy="283.16" rx="10.5" ry="10.25"/>
  <circle class="cls-1" cx="796.04" cy="278.5" r="5.06"/>
  <circle class="cls-1" cx="822.54" cy="341.16" r="5.25"/>
  <circle class="cls-1" cx="757.28" cy="330.93" r="5"/>
  <circle class="cls-1" cx="839.46" cy="448" r="3.75"/>
  <circle class="cls-1" cx="783.52" cy="430.8" r="10"/>
  <circle class="cls-1" cx="858.18" cy="537.71" r="4.44"/>
  <circle class="cls-1" cx="794.23" cy="524.05" r="5.37"/>
  <ellipse class="cls-1" cx="687.38" cy="440.76" rx=".16" ry=".14"/>
  <circle class="cls-1" cx="715.03" cy="396.83" r="6.04"/>
  <circle class="cls-1" cx="610.98" cy="305.88" r="8.63"/>
  <circle class="cls-1" cx="680.05" cy="191.56" r="5.56"/>
  <circle class="cls-1" cx="604.15" cy="149.12" r="4.75"/>
  <circle class="cls-1" cx="516.54" cy="155.15" r="3.88"/>
  <circle class="cls-1" cx="580.1" cy="181.74" r="6.75"/>
  <circle class="cls-1" cx="505.7" cy="214.42" r="9.63"/>
  <circle class="cls-1" cx="450.47" cy="151.27" r="4.69"/>
  <circle class="cls-1" cx="380.16" cy="151.59" r="5"/>
  <circle class="cls-1" cx="451" cy="277.83" r="9.25"/>
  <circle class="cls-1" cx="502.19" cy="386.81" r="8.87"/>
  <circle class="cls-1" cx="614.18" cy="430.62" r="10"/>
  <circle class="cls-1" cx="395" cy="233.9" r="9.85"/>
  <ellipse class="cls-1" cx="387.58" cy="189.52" rx="7.42" ry="7.5"/>
  <line class="cls-1" x1="204.61" y1="243.75" x2="170.73" y2="282.25"/>
  <line class="cls-1" x1="137.61" y1="354.94" x2="170.73" y2="282.25"/>
  <line class="cls-1" x1="110.98" y1="442" x2="137.61" y2="354.94"/>
  <line class="cls-1" x1="107.11" y1="526.29" x2="110.98" y2="447.62"/>
  <line class="cls-1" x1="124.3" y1="609" x2="107.11" y2="531.87"/>
  <line class="cls-1" x1="160.11" y1="688.76" x2="124.61" y2="612.87"/>
  <line class="cls-1" x1="187.85" y1="741.4" x2="160.11" y2="688.76"/>
  <line class="cls-1" x1="304.11" y1="838.5" x2="233.33" y2="784.83"/>
  <line class="cls-1" x1="189.61" y1="744.65" x2="233.33" y2="784.83"/>
  <line class="cls-1" x1="305.38" y1="840.47" x2="385.73" y2="873.5"/>
  <line class="cls-1" x1="517.28" y1="890.82" x2="389.61" y2="875.25"/>
  <line class="cls-1" x1="640.66" y1="864" x2="554.75" y2="888.12"/>
  <line class="cls-1" x1="522.1" y1="892" x2="554.75" y2="888.12"/>
  <line class="cls-1" x1="644.63" y1="864" x2="738.11" y2="814.5"/>
  <line class="cls-1" x1="804.69" y1="746.86" x2="739.92" y2="814.5"/>
  <line class="cls-1" x1="834" y1="708.65" x2="808.03" y2="743.5"/>
  <line class="cls-1" x1="878.11" y1="607.5" x2="868.85" y2="630.42"/>
  <line class="cls-1" x1="835.98" y1="705.58" x2="868.85" y2="630.42"/>
  <line class="cls-1" x1="878.11" y1="605.9" x2="891.2" y2="550.16"/>
  <line class="cls-1" x1="889.61" y1="471.14" x2="891.2" y2="546.77"/>
  <line class="cls-1" x1="878.11" y1="399" x2="885.73" y2="420.8"/>
  <line class="cls-1" x1="889.61" y1="468.61" x2="885.73" y2="420.8"/>
  <line class="cls-1" x1="878.11" y1="396.83" x2="863.61" y2="354.5"/>
  <line class="cls-1" x1="841.61" y1="310" x2="863.61" y2="354.5"/>
  <line class="cls-1" x1="787.79" y1="241.67" x2="817.29" y2="271.17"/>
  <line class="cls-1" x1="840.58" y1="307.17" x2="817.29" y2="271.17"/>
  <line class="cls-1" x1="787.11" y1="239.91" x2="733.61" y2="186.41"/>
  <line class="cls-1" x1="651.23" y1="142.01" x2="733.61" y2="186.41"/>
  <line class="cls-1" x1="572.44" y1="117.5" x2="650.11" y2="140.5"/>
  <line class="cls-1" x1="496.08" y1="109.75" x2="567.23" y2="117.5"/>
  <line class="cls-1" x1="419.65" y1="118.75" x2="455.16" y2="111.73"/>
  <line class="cls-1" x1="492.6" y1="109.75" x2="455.16" y2="111.73"/>
  <line class="cls-1" x1="417.12" y1="118.75" x2="387.58" y2="126.24"/>
  <line class="cls-1" x1="332.61" y1="146.25" x2="387.58" y2="126.24"/>
  <line class="cls-1" x1="269.71" y1="184.99" x2="332.61" y2="146.25"/>
  <line class="cls-1" x1="206.05" y1="243.08" x2="268.61" y2="186.75"/>
  <line class="cls-1" x1="326.7" y1="206.76" x2="331.61" y2="150.12"/>
  <line class="cls-1" x1="269.71" y1="188.09" x2="326.7" y2="206.76"/>
  <line class="cls-1" x1="387.58" y1="189.52" x2="326.7" y2="206.76"/>
  <line class="cls-1" x1="392.36" y1="235.34" x2="326.7" y2="206.76"/>
  <line class="cls-1" x1="379.04" y1="152.58" x2="332.61" y2="146.25"/>
  <line class="cls-1" x1="387.58" y1="189.52" x2="379.04" y2="152.58"/>
  <line class="cls-1" x1="395" y1="233.9" x2="387.58" y2="189.52"/>
  <line class="cls-1" x1="381.06" y1="151.27" x2="417.12" y2="118.75"/>
  <line class="cls-1" x1="389.15" y1="189.52" x2="451" y2="150.12"/>
  <line class="cls-1" x1="419.65" y1="118.75" x2="451" y2="150.12"/>
  <line class="cls-1" x1="380.16" y1="152.58" x2="445.78" y2="151.27"/>
  <line class="cls-1" x1="451.76" y1="151.59" x2="496.08" y2="109.75"/>
  <line class="cls-1" x1="516.54" y1="155.96" x2="496.08" y2="109.75"/>
  <line class="cls-1" x1="451" y1="151.27" x2="516.54" y2="155.96"/>
  <line class="cls-1" x1="571.11" y1="116.03" x2="516.54" y2="155.96"/>
  <line class="cls-1" x1="505.7" y1="211.71" x2="571.11" y2="116.03"/>
  <line class="cls-1" x1="581.08" y1="183.34" x2="505.7" y2="211.71"/>
  <line class="cls-1" x1="570.11" y1="117.5" x2="581.08" y2="183.34"/>
  <line class="cls-1" x1="604.15" y1="150.42" x2="581.08" y2="183.34"/>
  <line class="cls-1" x1="572.44" y1="118.44" x2="604.15" y2="150.42"/>
  <line class="cls-1" x1="650.11" y1="140.5" x2="604.15" y2="150.42"/>
  <line class="cls-1" x1="678.97" y1="189.87" x2="604.15" y2="150.42"/>
  <line class="cls-1" x1="650.11" y1="140.5" x2="678.97" y2="189.87"/>
  <line class="cls-1" x1="580.1" y1="183.71" x2="678.97" y2="189.87"/>
  <line class="cls-1" x1="732.83" y1="186" x2="680.05" y2="189.87"/>
  <line class="cls-1" x1="696.16" y1="241.67" x2="732.83" y2="186"/>
  <line class="cls-1" x1="678.97" y1="191.56" x2="696.16" y2="241.67"/>
  <line class="cls-1" x1="733.61" y1="283.16" x2="696.16" y2="241.67"/>
  <line class="cls-1" x1="787.79" y1="239.91" x2="697.32" y2="239.91"/>
  <line class="cls-1" x1="794.68" y1="278.5" x2="697.32" y2="239.91"/>
  <line class="cls-1" x1="731.46" y1="284.56" x2="794.68" y2="278.5"/>
  <line class="cls-1" x1="787.11" y1="239.91" x2="796.04" y2="278.5"/>
  <line class="cls-1" x1="758.36" y1="330.93" x2="796.04" y2="278.5"/>
  <line class="cls-1" x1="732.83" y1="284.43" x2="758.36" y2="330.93"/>
  <line class="cls-1" x1="796.04" y1="278.5" x2="840.58" y2="307.17"/>
  <line class="cls-1" x1="822.54" y1="341.16" x2="758.36" y2="332.25"/>
  <line class="cls-1" x1="794.68" y1="277.58" x2="822.54" y2="341.16"/>
  <line class="cls-1" x1="842.62" y1="308.5" x2="822.54" y2="341.16"/>
  <line class="cls-1" x1="863.94" y1="355.47" x2="822.54" y2="341.16"/>
  <line class="cls-1" x1="878.11" y1="399" x2="822.54" y2="341.16"/>
  <line class="cls-1" x1="837.73" y1="446.93" x2="758.36" y2="330.93"/>
  <line class="cls-1" x1="878.11" y1="399" x2="837.73" y2="446.93"/>
  <line class="cls-1" x1="889.61" y1="471.14" x2="837.73" y2="446.93"/>
  <line class="cls-1" x1="783.23" y1="427.73" x2="837.73" y2="446.93"/>
  <line class="cls-1" x1="758.36" y1="330.93" x2="783.23" y2="427.73"/>
  <line class="cls-1" x1="794.68" y1="524.05" x2="783.52" y2="430.8"/>
  <line class="cls-1" x1="839.46" y1="448" x2="794.68" y2="524.05"/>
  <line class="cls-1" x1="889.61" y1="548.5" x2="839.46" y2="448"/>
  <line class="cls-1" x1="794.68" y1="524.05" x2="858.18" y2="537.71"/>
  <line class="cls-1" x1="889.61" y1="548.5" x2="858.18" y2="537.71"/>
  <line class="cls-1" x1="840.01" y1="448" x2="858.18" y2="537.71"/>
  <line class="cls-1" x1="795.8" y1="524.29" x2="802.62" y2="583.8"/>
  <line class="cls-1" x1="827.33" y1="626.15" x2="802.62" y2="583.8"/>
  <line class="cls-1" x1="878.11" y1="607.5" x2="827.33" y2="626.15"/>
  <line class="cls-1" x1="858.18" y1="537.71" x2="827.33" y2="619.65"/>
  <line class="cls-1" x1="876.97" y1="607.91" x2="858.18" y2="537.71"/>
  <line class="cls-1" x1="800.81" y1="585.28" x2="858.18" y2="537.71"/>
  <line class="cls-1" x1="834" y1="705.58" x2="827.33" y2="626.15"/>
  <line class="cls-1" x1="806.61" y1="743.5" x2="785.04" y2="669.08"/>
  <line class="cls-1" x1="717.19" y1="621.54" x2="785.04" y2="669.08"/>
  <line class="cls-1" x1="827.33" y1="626.15" x2="717.19" y2="621.54"/>
  <line class="cls-1" x1="834" y1="705.58" x2="785.04" y2="669.08"/>
  <line class="cls-1" x1="829.5" y1="625.04" x2="785.04" y2="669.08"/>
  <line class="cls-1" x1="802.73" y1="585.28" x2="717.19" y2="621.54"/>
  <line class="cls-1" x1="793.18" y1="524.29" x2="717.19" y2="621.54"/>
  <line class="cls-1" x1="755.19" y1="724.83" x2="717.19" y2="621.54"/>
  <line class="cls-1" x1="785.04" y1="671.63" x2="755.19" y2="724.83"/>
  <line class="cls-1" x1="752.74" y1="769.38" x2="785.04" y2="671.63"/>
  <line class="cls-1" x1="806.61" y1="744.57" x2="752.74" y2="769.38"/>
  <line class="cls-1" x1="640.66" y1="737.45" x2="717.19" y2="621.54"/>
  <line class="cls-1" x1="755.19" y1="724.83" x2="640.66" y2="737.45"/>
  <line class="cls-1" x1="685.01" y1="794.08" x2="755.19" y2="724.83"/>
  <line class="cls-1" x1="751.11" y1="769.38" x2="640.66" y2="737.45"/>
  <line class="cls-1" x1="685.01" y1="794.08" x2="640.66" y2="737.45"/>
  <line class="cls-1" x1="738.11" y1="814.5" x2="685.01" y2="794.08"/>
  <line class="cls-1" x1="752.74" y1="769.38" x2="738.11" y2="814.5"/>
  <line class="cls-1" x1="685.01" y1="794.08" x2="752.74" y2="769.38"/>
  <line class="cls-1" x1="794.23" y1="524.29" x2="682.92" y2="507.2"/>
  <line class="cls-1" x1="783.52" y1="430.8" x2="682.92" y2="507.2"/>
  <line class="cls-1" x1="717.19" y1="621.54" x2="682.92" y2="507.2"/>
  <line class="cls-1" x1="451" y1="151.27" x2="451" y2="281.53"/>
  <line class="cls-1" x1="506.31" y1="213.83" x2="451" y2="281.53"/>
  <line class="cls-1" x1="516.54" y1="155.96" x2="451" y2="281.53"/>
  <line class="cls-1" x1="395" y1="233.9" x2="451" y2="281.53"/>
  <line class="cls-1" x1="289.11" y1="325.97" x2="392.36" y2="235.34"/>
  <line class="cls-1" x1="451" y1="277.83" x2="289.11" y2="325.97"/>
  <line class="cls-1" x1="326.7" y1="206.76" x2="289.11" y2="325.97"/>
  <line class="cls-1" x1="260.22" y1="253.51" x2="289.11" y2="325.97"/>
  <line class="cls-1" x1="265.88" y1="221.05" x2="260.22" y2="253.51"/>
  <line class="cls-1" x1="326.7" y1="206.76" x2="260.22" y2="253.51"/>
  <line class="cls-1" x1="269.71" y1="188.09" x2="264.41" y2="223.4"/>
  <line class="cls-1" x1="213.4" y1="282.25" x2="260.22" y2="253.51"/>
  <line class="cls-1" x1="263.05" y1="219.21" x2="213.4" y2="282.25"/>
  <line class="cls-1" x1="204.61" y1="243.75" x2="213.4" y2="282.25"/>
  <line class="cls-1" x1="265.11" y1="218.75" x2="204.61" y2="243.75"/>
  <line class="cls-1" x1="182.86" y1="319.84" x2="213.4" y2="282.25"/>
  <line class="cls-1" x1="175.72" y1="281.81" x2="213.4" y2="282.25"/>
  <line class="cls-1" x1="182.86" y1="319.84" x2="175.72" y2="281.81"/>
  <line class="cls-1" x1="289.11" y1="325.97" x2="182.86" y2="319.84"/>
  <line class="cls-1" x1="211.74" y1="282.25" x2="289.11" y2="325.97"/>
  <line class="cls-1" x1="270.47" y1="397.48" x2="289.11" y2="325.97"/>
  <line class="cls-1" x1="372.48" y1="386.81" x2="289.11" y2="325.97"/>
  <line class="cls-1" x1="270.47" y1="397.48" x2="182.86" y2="319.84"/>
  <line class="cls-1" x1="139.2" y1="356.75" x2="182.86" y2="319.84"/>
  <line class="cls-1" x1="176.69" y1="364.31" x2="182.86" y2="319.84"/>
  <line class="cls-1" x1="269.71" y1="398.47" x2="176.69" y2="364.31"/>
  <line class="cls-1" x1="139.2" y1="358.66" x2="176.69" y2="364.31"/>
  <line class="cls-1" x1="179.77" y1="395.68" x2="270.47" y2="397.48"/>
  <line class="cls-1" x1="173.53" y1="364.31" x2="179.77" y2="395.68"/>
  <line class="cls-1" x1="156.2" y1="414.71" x2="110.98" y2="442"/>
  <line class="cls-1" x1="139.2" y1="356.75" x2="156.2" y2="414.71"/>
  <line class="cls-1" x1="179.77" y1="395.68" x2="139.2" y2="358.66"/>
  <line class="cls-1" x1="270.47" y1="397.48" x2="229.44" y2="476.15"/>
  <line class="cls-1" x1="372.48" y1="389.99" x2="270.47" y2="397.48"/>
  <line class="cls-1" x1="178.48" y1="396.58" x2="229.44" y2="476.15"/>
  <line class="cls-1" x1="156.2" y1="414.71" x2="226.67" y2="471.83"/>
  <line class="cls-1" x1="131.49" y1="486.15" x2="156.2" y2="414.71"/>
  <line class="cls-1" x1="110.98" y1="442" x2="131.49" y2="486.15"/>
  <line class="cls-1" x1="107.11" y1="526.29" x2="131.49" y2="486.15"/>
  <line class="cls-1" x1="231.17" y1="476.15" x2="131.49" y2="486.15"/>
  <line class="cls-1" x1="172.03" y1="551.26" x2="131.49" y2="486.15"/>
  <line class="cls-1" x1="107.11" y1="528" x2="172.03" y2="551.26"/>
  <line class="cls-1" x1="124.3" y1="610.54" x2="172.03" y2="551.26"/>
  <line class="cls-1" x1="176.65" y1="645.55" x2="172.03" y2="551.26"/>
  <line class="cls-1" x1="124.3" y1="609" x2="176.65" y2="645.55"/>
  <line class="cls-1" x1="171.63" y1="551.76" x2="260.14" y2="580.9"/>
  <line class="cls-1" x1="131.49" y1="486.15" x2="260.14" y2="580.9"/>
  <line class="cls-1" x1="231.17" y1="476.15" x2="260.14" y2="580.9"/>
  <line class="cls-1" x1="174.62" y1="644.13" x2="228.45" y2="704.83"/>
  <line class="cls-1" x1="172.03" y1="551.26" x2="228.45" y2="704.83"/>
  <line class="cls-1" x1="260.14" y1="580.9" x2="228.45" y2="704.83"/>
  <line class="cls-1" x1="163.98" y1="691.5" x2="228.45" y2="704.83"/>
  <line class="cls-1" x1="174.62" y1="645.55" x2="163.98" y2="691.5"/>
  <line class="cls-1" x1="229.92" y1="706.38" x2="273.91" y2="778.45"/>
  <line class="cls-1" x1="235.04" y1="784.83" x2="278.12" y2="778.45"/>
  <line class="cls-1" x1="227.13" y1="704.83" x2="235.04" y2="784.83"/>
  <line class="cls-1" x1="161.55" y1="691.5" x2="235.04" y2="784.83"/>
  <line class="cls-1" x1="355.96" y1="687.62" x2="233.33" y2="704.83"/>
  <line class="cls-1" x1="320.89" y1="631.87" x2="229.92" y2="706.38"/>
  <line class="cls-1" x1="273.91" y1="778.45" x2="355.96" y2="687.62"/>
  <line class="cls-1" x1="305.38" y1="838.5" x2="333.95" y2="787.24"/>
  <line class="cls-1" x1="353.2" y1="688.76" x2="333.95" y2="787.24"/>
  <line class="cls-1" x1="305.38" y1="840.47" x2="273.91" y2="778.45"/>
  <line class="cls-1" x1="444.05" y1="846.87" x2="355.96" y2="691.5"/>
  <line class="cls-1" x1="427.69" y1="717.59" x2="355.96" y2="691.5"/>
  <line class="cls-1" x1="320.89" y1="634.02" x2="427.69" y2="717.59"/>
  <line class="cls-1" x1="358.02" y1="688.76" x2="320.89" y2="634.02"/>
  <line class="cls-1" x1="389.61" y1="872.17" x2="444.05" y2="846.87"/>
  <line class="cls-1" x1="335.76" y1="787.24" x2="444.05" y2="846.87"/>
  <line class="cls-1" x1="389.61" y1="872.17" x2="333.95" y2="787.24"/>
  <line class="cls-1" x1="444.05" y1="846.87" x2="569.78" y2="820.56"/>
  <line class="cls-1" x1="561.14" y1="854.99" x2="517.28" y2="890.82"/>
  <line class="cls-1" x1="444.05" y1="846.87" x2="522.1" y2="892"/>
  <line class="cls-1" x1="575.03" y1="820.56" x2="494.37" y2="763.38"/>
  <line class="cls-1" x1="444.05" y1="846.87" x2="494.37" y2="763.38"/>
  <line class="cls-1" x1="427.69" y1="717.59" x2="494.37" y2="763.38"/>
  <line class="cls-1" x1="444.05" y1="842.37" x2="427.69" y2="717.59"/>
  <line class="cls-1" x1="569.85" y1="669.08" x2="427.69" y2="717.59"/>
  <line class="cls-1" x1="494.37" y1="763.38" x2="569.85" y2="669.08"/>
  <line class="cls-1" x1="564.1" y1="854.99" x2="575.03" y2="820.56"/>
  <line class="cls-1" x1="640.66" y1="864" x2="564.1" y2="854.99"/>
  <line class="cls-1" x1="685.01" y1="794.08" x2="640.66" y2="864"/>
  <line class="cls-1" x1="575.03" y1="818.37" x2="685.01" y2="794.08"/>
  <line class="cls-1" x1="564.1" y1="854.99" x2="685.01" y2="794.08"/>
  <line class="cls-1" x1="575.03" y1="819.17" x2="640.66" y2="737.45"/>
  <line class="cls-1" x1="572.78" y1="671.63" x2="575.03" y2="818.37"/>
  <line class="cls-1" x1="640.66" y1="737.45" x2="569.85" y2="669.08"/>
  <line class="cls-1" x1="717.19" y1="621.54" x2="569.85" y2="669.08"/>
  <line class="cls-1" x1="682.92" y1="508.88" x2="569.85" y2="669.08"/>
  <line class="cls-1" x1="697.32" y1="239.91" x2="581.08" y2="183.34"/>
  <line class="cls-1" x1="731.46" y1="283.16" x2="581.08" y2="183.34"/>
  <line class="cls-1" x1="608.9" y1="304.62" x2="581.08" y2="183.34"/>
  <line class="cls-1" x1="731.46" y1="283.16" x2="608.9" y2="304.62"/>
  <line class="cls-1" x1="504.21" y1="216.4" x2="608.9" y2="304.62"/>
  <line class="cls-1" x1="451" y1="281.53" x2="608.9" y2="304.62"/>
  <line class="cls-1" x1="715.03" y1="395.68" x2="758.36" y2="330.93"/>
  <line class="cls-1" x1="780.99" y1="432.72" x2="715.03" y2="395.68"/>
  <line class="cls-1" x1="731.46" y1="280.78" x2="715.03" y2="390.78"/>
  <line class="cls-1" x1="610.98" y1="430.8" x2="715.03" y2="395.68"/>
  <line class="cls-1" x1="784.89" y1="432.72" x2="619.6" y2="432.72"/>
  <line class="cls-1" x1="718.91" y1="397.87" x2="614.18" y2="308.5"/>
  <line class="cls-1" x1="498.48" y1="386.81" x2="608.9" y2="304.62"/>
  <line class="cls-1" x1="614.18" y1="430.8" x2="511.07" y2="386.81"/>
  <line class="cls-1" x1="451" y1="277.83" x2="504.21" y2="386.81"/>
  <line class="cls-1" x1="427.69" y1="500" x2="498.48" y2="386.81"/>
  <line class="cls-1" x1="369.99" y1="384.99" x2="504.21" y2="386.81"/>
  <line class="cls-1" x1="231.17" y1="476.15" x2="305.38" y2="499.88"/>
  <line class="cls-1" x1="270.47" y1="397.48" x2="305.38" y2="499.88"/>
  <line class="cls-1" x1="260.88" y1="579.02" x2="305.38" y2="499.88"/>
  <line class="cls-1" x1="320.89" y1="634.02" x2="260.14" y2="580.9"/>
  <line class="cls-1" x1="305.38" y1="499.88" x2="320.89" y2="631.87"/>
  <line class="cls-1" x1="457.85" y1="611.65" x2="305.38" y2="499.88"/>
  <line class="cls-1" x1="435.32" y1="501.91" x2="270.47" y2="397.48"/>
  <line class="cls-1" x1="305.62" y1="501.91" x2="427.69" y2="500"/>
  <line class="cls-1" x1="560.23" y1="521.45" x2="435.32" y2="501.91"/>
  <line class="cls-1" x1="455.99" y1="612.87" x2="435.32" y2="501.91"/>
  <line class="cls-1" x1="612.77" y1="430.2" x2="435.32" y2="501.91"/>
  <line class="cls-1" x1="452.13" y1="280.15" x2="372.48" y2="386.81"/>
  <line class="cls-1" x1="614.18" y1="436.37" x2="560.23" y2="521.45"/>
  <line class="cls-1" x1="682.92" y1="507.2" x2="560.23" y2="521.45"/>
  <line class="cls-1" x1="427.69" y1="717.59" x2="682.92" y2="507.2"/>
  <line class="cls-1" x1="457.85" y1="611.65" x2="427.69" y2="717.59"/>
  <line class="cls-1" x1="314.94" y1="634.02" x2="455.99" y2="612.87"/>
  <line class="cls-1" x1="679.05" y1="508.96" x2="455.99" y2="612.87"/>
  <line class="cls-1" x1="555.3" y1="518.7" x2="455.99" y2="612.87"/>
  <line class="cls-1" x1="430.72" y1="501.91" x2="369.99" y2="384.99"/>
  <line class="cls-1" x1="610.98" y1="305.88" x2="612.77" y2="430.2"/>
  <line class="cls-1" x1="685.61" y1="505.15" x2="614.18" y2="430.8"/>
</svg>