<?xml version="1.0" encoding="UTF-8"?>
<svg id="Layer_1" data-name="Layer 1" xmlns="http://www.w3.org/2000/svg" viewBox="0 0 895.51 953.03">
  <defs>
    <style>
      .cls-1 {
        fill: none;
        stroke: #1d1d1b;
        stroke-miterlimit: 10;
      }
    </style>
  </defs>
  <rect class="cls-1" x=".5" y="122.21" width="22.33" height="22.33"/>
  <rect class="cls-1" x="25.75" y="122.21" width="22.33" height="22.33"/>
  <rect class="cls-1" x="27.04" y="146.81" width="22.33" height="22.33"/>
  <rect class="cls-1" x="36.11" y="171.41" width="22.33" height="22.33"/>
  <rect class="cls-1" x="47.27" y="196.01" width="22.33" height="22.33"/>
  <rect class="cls-1" x="55.69" y="220.61" width="22.33" height="22.33"/>
  <rect class="cls-1" x="66.86" y="245.21" width="22.33" height="22.33"/>
  <rect class="cls-1" x="73.09" y="269.81" width="22.33" height="22.33"/>
  <rect class="cls-1" x="82.56" y="294.41" width="22.33" height="22.33"/>
  <rect class="cls-1" x="107.8" y="171.41" width="22.33" height="22.33"/>
  <rect class="cls-1" x="118.97" y="196.01" width="22.33" height="22.33"/>
  <rect class="cls-1" x="131.92" y="171.41" width="22.33" height="22.33"/>
  <rect class="cls-1" x="123.5" y="146.81" width="22.33" height="22.33"/>
  <rect class="cls-1" x="143.08" y="196.01" width="22.33" height="22.33"/>
  <rect class="cls-1" x="156.03" y="171.41" width="22.33" height="22.33"/>
  <rect class="cls-1" x="180.63" y="171.41" width="22.33" height="22.33"/>
  <rect class="cls-1" x="167.2" y="196.01" width="22.33" height="22.33"/>
  <rect class="cls-1" x="191.8" y="196.01" width="22.33" height="22.33"/>
  <rect class="cls-1" x="215.91" y="196.01" width="22.33" height="22.33"/>
  <rect class="cls-1" x="240.03" y="196.01" width="22.33" height="22.33"/>
  <rect class="cls-1" x="264.31" y="196.01" width="22.33" height="22.33"/>
  <rect class="cls-1" x="294.73" y="220.61" width="22.33" height="22.33"/>
  <rect class="cls-1" x="318.69" y="220.61" width="22.33" height="22.33"/>
  <rect class="cls-1" x="342.64" y="220.61" width="22.33" height="22.33"/>
  <rect class="cls-1" x="308.49" y="245.21" width="22.33" height="22.33"/>
  <rect class="cls-1" x="332.44" y="245.21" width="22.33" height="22.33"/>
  <rect class="cls-1" x="356.4" y="245.21" width="22.33" height="22.33"/>
  <g>
    <rect class="cls-1" x="90.97" y="245.21" width="22.33" height="22.33"/>
    <rect class="cls-1" x="97.44" y="269.81" width="22.33" height="22.33"/>
    <rect class="cls-1" x="103.92" y="220.61" width="22.33" height="22.33"/>
    <rect class="cls-1" x="128.03" y="220.61" width="22.33" height="22.33"/>
    <rect class="cls-1" x="152.31" y="220.61" width="22.33" height="22.33"/>
    <rect class="cls-1" x="176.91" y="220.61" width="22.33" height="22.33"/>
    <rect class="cls-1" x="115.09" y="245.21" width="22.33" height="22.33"/>
    <rect class="cls-1" x="139.2" y="245.21" width="22.33" height="22.33"/>
    <rect class="cls-1" x="163.48" y="245.21" width="22.33" height="22.33"/>
    <rect class="cls-1" x="188.08" y="245.21" width="22.33" height="22.33"/>
    <rect class="cls-1" x="200.38" y="220.61" width="22.33" height="22.33"/>
    <rect class="cls-1" x="224.33" y="220.61" width="22.33" height="22.33"/>
    <rect class="cls-1" x="211.54" y="245.21" width="22.33" height="22.33"/>
    <rect class="cls-1" x="234.85" y="245.21" width="22.33" height="22.33"/>
    <rect class="cls-1" x="271.43" y="220.61" width="22.33" height="22.33"/>
    <rect class="cls-1" x="258.97" y="245.21" width="22.33" height="22.33"/>
    <rect class="cls-1" x="283.57" y="245.21" width="22.33" height="22.33"/>
    <rect class="cls-1" x="247.8" y="220.61" width="22.33" height="22.33"/>
  </g>
  <rect class="cls-1" x="106.67" y="294.41" width="22.33" height="22.33"/>
  <rect class="cls-1" x="121.4" y="269.81" width="22.33" height="22.33"/>
  <rect class="cls-1" x="145.51" y="269.81" width="22.33" height="22.33"/>
  <rect class="cls-1" x="169.79" y="269.81" width="22.33" height="22.33"/>
  <rect class="cls-1" x="194.39" y="269.81" width="22.33" height="22.33"/>
  <rect class="cls-1" x="130.78" y="294.41" width="22.33" height="22.33"/>
  <rect class="cls-1" x="154.9" y="294.41" width="22.33" height="22.33"/>
  <rect class="cls-1" x="179.18" y="294.41" width="22.33" height="22.33"/>
  <rect class="cls-1" x="203.78" y="294.41" width="22.33" height="22.33"/>
  <rect class="cls-1" x="217.86" y="269.81" width="22.33" height="22.33"/>
  <rect class="cls-1" x="241.81" y="269.81" width="22.33" height="22.33"/>
  <rect class="cls-1" x="227.24" y="294.41" width="22.33" height="22.33"/>
  <rect class="cls-1" x="250.55" y="294.41" width="22.33" height="22.33"/>
  <rect class="cls-1" x="288.91" y="269.81" width="22.33" height="22.33"/>
  <rect class="cls-1" x="274.66" y="294.41" width="22.33" height="22.33"/>
  <rect class="cls-1" x="299.26" y="294.41" width="22.33" height="22.33"/>
  <rect class="cls-1" x="81.99" y="319.01" width="22.33" height="22.33"/>
  <rect class="cls-1" x="81.99" y="343.61" width="22.33" height="22.33"/>
  <rect class="cls-1" x="106.1" y="343.61" width="22.33" height="22.33"/>
  <rect class="cls-1" x="130.78" y="343.61" width="22.33" height="22.33"/>
  <rect class="cls-1" x="106.1" y="319.01" width="22.33" height="22.33"/>
  <rect class="cls-1" x="130.22" y="319.01" width="22.33" height="22.33"/>
  <rect class="cls-1" x="154.33" y="319.01" width="22.33" height="22.33"/>
  <rect class="cls-1" x="178.61" y="319.01" width="22.33" height="22.33"/>
  <rect class="cls-1" x="203.21" y="319.01" width="22.33" height="22.33"/>
  <rect class="cls-1" x="226.68" y="319.01" width="22.33" height="22.33"/>
  <rect class="cls-1" x="249.98" y="319.01" width="22.33" height="22.33"/>
  <rect class="cls-1" x="274.1" y="319.01" width="22.33" height="22.33"/>
  <rect class="cls-1" x="298.7" y="319.01" width="22.33" height="22.33"/>
  <rect class="cls-1" x="265.28" y="269.81" width="22.33" height="22.33"/>
  <rect class="cls-1" x="312.37" y="269.81" width="22.33" height="22.33"/>
  <rect class="cls-1" x="336.33" y="269.81" width="22.33" height="22.33"/>
  <rect class="cls-1" x="383.42" y="269.81" width="22.33" height="22.33"/>
  <rect class="cls-1" x="359.79" y="269.81" width="22.33" height="22.33"/>
  <rect class="cls-1" x="324.03" y="294.41" width="22.33" height="22.33"/>
  <rect class="cls-1" x="347.98" y="294.41" width="22.33" height="22.33"/>
  <rect class="cls-1" x="395.08" y="294.41" width="22.33" height="22.33"/>
  <rect class="cls-1" x="371.45" y="294.41" width="22.33" height="22.33"/>
  <rect class="cls-1" x="324.03" y="319.01" width="22.33" height="22.33"/>
  <rect class="cls-1" x="347.98" y="319.01" width="22.33" height="22.33"/>
  <rect class="cls-1" x="395.08" y="319.01" width="22.33" height="22.33"/>
  <rect class="cls-1" x="419.03" y="319.01" width="22.33" height="22.33"/>
  <rect class="cls-1" x="371.45" y="319.01" width="22.33" height="22.33"/>
  <rect class="cls-1" x="347.9" y="343.61" width="22.33" height="22.33"/>
  <rect class="cls-1" x="395" y="343.61" width="22.33" height="22.33"/>
  <rect class="cls-1" x="418.95" y="343.61" width="22.33" height="22.33"/>
  <rect class="cls-1" x="371.37" y="343.61" width="22.33" height="22.33"/>
  <rect class="cls-1" x="347.9" y="368.21" width="22.33" height="22.33"/>
  <rect class="cls-1" x="395" y="368.21" width="22.33" height="22.33"/>
  <rect class="cls-1" x="418.95" y="368.21" width="22.33" height="22.33"/>
  <rect class="cls-1" x="371.37" y="368.21" width="22.33" height="22.33"/>
  <rect class="cls-1" x="364.97" y="392.81" width="22.33" height="22.33"/>
  <rect class="cls-1" x="412.07" y="392.81" width="22.33" height="22.33"/>
  <rect class="cls-1" x="436.02" y="392.81" width="22.33" height="22.33"/>
  <rect class="cls-1" x="388.44" y="392.81" width="22.33" height="22.33"/>
  <rect class="cls-1" x="365.38" y="417.41" width="22.33" height="22.33"/>
  <rect class="cls-1" x="412.47" y="417.41" width="22.33" height="22.33"/>
  <rect class="cls-1" x="436.43" y="417.41" width="22.33" height="22.33"/>
  <rect class="cls-1" x="388.85" y="417.41" width="22.33" height="22.33"/>
  <rect class="cls-1" x="365.78" y="442.01" width="22.33" height="22.33"/>
  <rect class="cls-1" x="412.88" y="442.01" width="22.33" height="22.33"/>
  <rect class="cls-1" x="436.83" y="442.01" width="22.33" height="22.33"/>
  <rect class="cls-1" x="389.25" y="442.01" width="22.33" height="22.33"/>
  <rect class="cls-1" x="383.5" y="465.96" width="22.33" height="22.33"/>
  <rect class="cls-1" x="430.6" y="465.96" width="22.33" height="22.33"/>
  <rect class="cls-1" x="406.97" y="465.96" width="22.33" height="22.33"/>
  <rect class="cls-1" x="424.69" y="490.24" width="22.33" height="22.33"/>
  <rect class="cls-1" x="401.06" y="490.24" width="22.33" height="22.33"/>
  <rect class="cls-1" x="125.32" y="392.81" width="22.33" height="22.33"/>
  <rect class="cls-1" x="124.84" y="417.41" width="22.33" height="22.33"/>
  <rect class="cls-1" x="130.95" y="368.21" width="22.33" height="22.33"/>
  <rect class="cls-1" x="106.1" y="368.21" width="22.33" height="22.33"/>
  <rect class="cls-1" x="149.68" y="392.81" width="22.33" height="22.33"/>
  <rect class="cls-1" x="156.15" y="343.61" width="22.33" height="22.33"/>
  <rect class="cls-1" x="180.27" y="343.61" width="22.33" height="22.33"/>
  <rect class="cls-1" x="204.55" y="343.61" width="22.33" height="22.33"/>
  <rect class="cls-1" x="229.15" y="343.61" width="22.33" height="22.33"/>
  <rect class="cls-1" x="155.06" y="368.21" width="22.33" height="22.33"/>
  <rect class="cls-1" x="179.18" y="368.21" width="22.33" height="22.33"/>
  <rect class="cls-1" x="203.45" y="368.21" width="22.33" height="22.33"/>
  <rect class="cls-1" x="228.05" y="368.21" width="22.33" height="22.33"/>
  <rect class="cls-1" x="252.61" y="343.61" width="22.33" height="22.33"/>
  <rect class="cls-1" x="276.57" y="343.61" width="22.33" height="22.33"/>
  <rect class="cls-1" x="251.52" y="368.21" width="22.33" height="22.33"/>
  <rect class="cls-1" x="274.83" y="368.21" width="22.33" height="22.33"/>
  <rect class="cls-1" x="323.66" y="343.61" width="22.33" height="22.33"/>
  <rect class="cls-1" x="298.94" y="368.21" width="22.33" height="22.33"/>
  <rect class="cls-1" x="323.54" y="368.21" width="22.33" height="22.33"/>
  <rect class="cls-1" x="300.03" y="343.61" width="22.33" height="22.33"/>
  <rect class="cls-1" x="148.95" y="417.41" width="22.33" height="22.33"/>
  <rect class="cls-1" x="173.63" y="392.81" width="22.33" height="22.33"/>
  <rect class="cls-1" x="197.75" y="392.81" width="22.33" height="22.33"/>
  <rect class="cls-1" x="222.02" y="392.81" width="22.33" height="22.33"/>
  <rect class="cls-1" x="246.62" y="392.81" width="22.33" height="22.33"/>
  <rect class="cls-1" x="173.07" y="417.41" width="22.33" height="22.33"/>
  <rect class="cls-1" x="197.18" y="417.41" width="22.33" height="22.33"/>
  <rect class="cls-1" x="221.46" y="417.41" width="22.33" height="22.33"/>
  <rect class="cls-1" x="246.06" y="417.41" width="22.33" height="22.33"/>
  <rect class="cls-1" x="270.09" y="392.81" width="22.33" height="22.33"/>
  <rect class="cls-1" x="294.05" y="392.81" width="22.33" height="22.33"/>
  <rect class="cls-1" x="269.53" y="417.41" width="22.33" height="22.33"/>
  <rect class="cls-1" x="292.83" y="417.41" width="22.33" height="22.33"/>
  <rect class="cls-1" x="341.14" y="392.81" width="22.33" height="22.33"/>
  <rect class="cls-1" x="316.95" y="417.41" width="22.33" height="22.33"/>
  <rect class="cls-1" x="341.55" y="417.41" width="22.33" height="22.33"/>
  <rect class="cls-1" x="124.84" y="442.01" width="22.33" height="22.33"/>
  <rect class="cls-1" x="148.95" y="442.01" width="22.33" height="22.33"/>
  <rect class="cls-1" x="173.07" y="442.01" width="22.33" height="22.33"/>
  <rect class="cls-1" x="197.18" y="442.01" width="22.33" height="22.33"/>
  <rect class="cls-1" x="221.46" y="442.01" width="22.33" height="22.33"/>
  <rect class="cls-1" x="246.06" y="442.01" width="22.33" height="22.33"/>
  <rect class="cls-1" x="269.53" y="442.01" width="22.33" height="22.33"/>
  <rect class="cls-1" x="292.83" y="442.01" width="22.33" height="22.33"/>
  <rect class="cls-1" x="316.95" y="442.01" width="22.33" height="22.33"/>
  <rect class="cls-1" x="341.55" y="442.01" width="22.33" height="22.33"/>
  <rect class="cls-1" x="142.84" y="465.96" width="22.33" height="22.33"/>
  <rect class="cls-1" x="166.96" y="465.96" width="22.33" height="22.33"/>
  <rect class="cls-1" x="191.07" y="465.96" width="22.33" height="22.33"/>
  <rect class="cls-1" x="215.19" y="465.96" width="22.33" height="22.33"/>
  <rect class="cls-1" x="239.46" y="465.96" width="22.33" height="22.33"/>
  <rect class="cls-1" x="264.06" y="465.96" width="22.33" height="22.33"/>
  <rect class="cls-1" x="287.53" y="465.96" width="22.33" height="22.33"/>
  <rect class="cls-1" x="310.84" y="465.96" width="22.33" height="22.33"/>
  <rect class="cls-1" x="334.95" y="465.96" width="22.33" height="22.33"/>
  <rect class="cls-1" x="359.55" y="465.96" width="22.33" height="22.33"/>
  <rect class="cls-1" x="160.12" y="489.92" width="22.33" height="22.33"/>
  <rect class="cls-1" x="184.23" y="489.92" width="22.33" height="22.33"/>
  <rect class="cls-1" x="208.35" y="489.92" width="22.33" height="22.33"/>
  <rect class="cls-1" x="232.46" y="489.92" width="22.33" height="22.33"/>
  <rect class="cls-1" x="256.74" y="489.92" width="22.33" height="22.33"/>
  <rect class="cls-1" x="281.34" y="489.92" width="22.33" height="22.33"/>
  <rect class="cls-1" x="304.81" y="489.92" width="22.33" height="22.33"/>
  <rect class="cls-1" x="328.11" y="489.92" width="22.33" height="22.33"/>
  <rect class="cls-1" x="352.23" y="489.92" width="22.33" height="22.33"/>
  <rect class="cls-1" x="376.83" y="489.92" width="22.33" height="22.33"/>
  <rect class="cls-1" x="207.62" y="514.52" width="22.33" height="22.33"/>
  <rect class="cls-1" x="231.74" y="514.52" width="22.33" height="22.33"/>
  <rect class="cls-1" x="255.85" y="514.52" width="22.33" height="22.33"/>
  <rect class="cls-1" x="279.96" y="514.52" width="22.33" height="22.33"/>
  <rect class="cls-1" x="304.24" y="514.52" width="22.33" height="22.33"/>
  <rect class="cls-1" x="328.84" y="514.52" width="22.33" height="22.33"/>
  <rect class="cls-1" x="352.31" y="514.52" width="22.33" height="22.33"/>
  <rect class="cls-1" x="375.61" y="514.52" width="22.33" height="22.33"/>
  <rect class="cls-1" x="399.73" y="514.52" width="22.33" height="22.33"/>
  <rect class="cls-1" x="424.33" y="514.52" width="22.33" height="22.33"/>
  <rect class="cls-1" x="448" y="514.52" width="22.33" height="22.33"/>
  <rect class="cls-1" x="471.62" y="514.52" width="22.33" height="22.33"/>
  <rect class="cls-1" x="495.4" y="514.52" width="22.33" height="22.33"/>
  <rect class="cls-1" x="519.36" y="514.52" width="22.33" height="22.33"/>
  <rect class="cls-1" x="543.96" y="514.52" width="22.33" height="22.33"/>
  <rect class="cls-1" x="424.69" y="538.47" width="22.33" height="22.33"/>
  <rect class="cls-1" x="448.4" y="538.79" width="22.33" height="22.33"/>
  <rect class="cls-1" x="317.51" y="392.81" width="22.33" height="22.33"/>
  <rect class="cls-1" x="204.75" y="171.41" width="22.33" height="22.33"/>
  <rect class="cls-1" x="50.75" y="146.81" width="22.33" height="22.33"/>
  <rect class="cls-1" x="75.11" y="146.81" width="22.33" height="22.33"/>
  <rect class="cls-1" x="99.06" y="146.81" width="22.33" height="22.33"/>
  <rect class="cls-1" x="71.87" y="196.01" width="22.33" height="22.33"/>
  <rect class="cls-1" x="95.34" y="196.01" width="22.33" height="22.33"/>
  <rect class="cls-1" x="79.8" y="220.61" width="22.33" height="22.33"/>
  <rect class="cls-1" x="84.17" y="171.41" width="22.33" height="22.33"/>
  <rect class="cls-1" x="60.71" y="171.41" width="22.33" height="22.33"/>
  <rect class="cls-1" x="2.12" y="146.81" width="22.33" height="22.33"/>
  <rect class="cls-1" x="11.67" y="171.41" width="22.33" height="22.33"/>
  <rect class="cls-1" x="22.83" y="196.01" width="22.33" height="22.33"/>
  <rect class="cls-1" x="31.25" y="220.61" width="22.33" height="22.33"/>
  <rect class="cls-1" x="42.42" y="245.21" width="22.33" height="22.33"/>
  <rect class="cls-1" x="49.54" y="269.81" width="22.33" height="22.33"/>
  <rect class="cls-1" x="58.6" y="294.41" width="22.33" height="22.33"/>
  <rect class="cls-1" x="58.6" y="319.01" width="22.33" height="22.33"/>
  <rect class="cls-1" x="58.6" y="343.61" width="22.33" height="22.33"/>
  <rect class="cls-1" x="58.6" y="368.21" width="22.33" height="22.33"/>
  <rect class="cls-1" x="82.56" y="368.21" width="22.33" height="22.33"/>
  <rect class="cls-1" x="101.01" y="392.81" width="22.33" height="22.33"/>
  <rect class="cls-1" x="101.01" y="442.01" width="22.33" height="22.33"/>
  <rect class="cls-1" x="118.48" y="466.61" width="22.33" height="22.33"/>
  <rect class="cls-1" x="135.32" y="489.92" width="22.33" height="22.33"/>
  <rect class="cls-1" x="157.65" y="514.52" width="22.33" height="22.33"/>
  <rect class="cls-1" x="181.6" y="514.52" width="22.33" height="22.33"/>
  <rect class="cls-1" x="189.37" y="537.82" width="22.33" height="22.33"/>
  <rect class="cls-1" x="213.33" y="537.82" width="22.33" height="22.33"/>
  <rect class="cls-1" x="237.28" y="537.82" width="22.33" height="22.33"/>
  <rect class="cls-1" x="261.31" y="537.82" width="22.33" height="22.33"/>
  <rect class="cls-1" x="285.27" y="537.82" width="22.33" height="22.33"/>
  <rect class="cls-1" x="309.22" y="537.82" width="22.33" height="22.33"/>
  <rect class="cls-1" x="333.17" y="537.82" width="22.33" height="22.33"/>
  <rect class="cls-1" x="357.12" y="537.82" width="22.33" height="22.33"/>
  <rect class="cls-1" x="381.08" y="537.82" width="22.33" height="22.33"/>
  <rect class="cls-1" x="259.61" y="562.42" width="22.33" height="22.33"/>
  <rect class="cls-1" x="283.65" y="562.42" width="22.33" height="22.33"/>
  <rect class="cls-1" x="308.25" y="562.42" width="22.33" height="22.33"/>
  <rect class="cls-1" x="333.17" y="562.42" width="22.33" height="22.33"/>
  <rect class="cls-1" x="357.12" y="562.42" width="22.33" height="22.33"/>
  <rect class="cls-1" x="101.01" y="417.41" width="22.33" height="22.33"/>
  <rect class="cls-1" x="535.15" y="612.01" width="22.33" height="22.33"/>
  <rect class="cls-1" x="531.43" y="587.41" width="22.33" height="22.33"/>
  <rect class="cls-1" x="506.83" y="587.41" width="22.33" height="22.33"/>
  <rect class="cls-1" x="511.03" y="612.01" width="22.33" height="22.33"/>
  <rect class="cls-1" x="486.43" y="612.01" width="22.33" height="22.33"/>
  <rect class="cls-1" x="540.33" y="636.61" width="22.33" height="22.33"/>
  <rect class="cls-1" x="515.73" y="636.61" width="22.33" height="22.33"/>
  <rect class="cls-1" x="546.64" y="661.21" width="22.33" height="22.33"/>
  <rect class="cls-1" x="522.36" y="661.21" width="22.33" height="22.33"/>
  <rect class="cls-1" x="497.76" y="661.21" width="22.33" height="22.33"/>
  <rect class="cls-1" x="492.26" y="636.61" width="22.33" height="22.33"/>
  <rect class="cls-1" x="541.95" y="685.81" width="22.33" height="22.33"/>
  <rect class="cls-1" x="517.67" y="685.81" width="22.33" height="22.33"/>
  <rect class="cls-1" x="493.07" y="685.81" width="22.33" height="22.33"/>
  <rect class="cls-1" x="532.56" y="710.41" width="22.33" height="22.33"/>
  <rect class="cls-1" x="508.28" y="710.41" width="22.33" height="22.33"/>
  <rect class="cls-1" x="483.68" y="710.41" width="22.33" height="22.33"/>
  <rect class="cls-1" x="523.52" y="735.01" width="22.33" height="22.33"/>
  <rect class="cls-1" x="498.92" y="735.01" width="22.33" height="22.33"/>
  <rect class="cls-1" x="475.45" y="735.01" width="22.33" height="22.33"/>
  <rect class="cls-1" x="518.22" y="759.61" width="22.33" height="22.33"/>
  <rect class="cls-1" x="493.94" y="759.61" width="22.33" height="22.33"/>
  <rect class="cls-1" x="469.34" y="759.61" width="22.33" height="22.33"/>
  <rect class="cls-1" x="511.08" y="783.89" width="22.33" height="22.33"/>
  <rect class="cls-1" x="486.81" y="783.89" width="22.33" height="22.33"/>
  <rect class="cls-1" x="462.21" y="783.89" width="22.33" height="22.33"/>
  <rect class="cls-1" x="508.92" y="808.17" width="22.33" height="22.33"/>
  <rect class="cls-1" x="484.8" y="808.17" width="22.33" height="22.33"/>
  <rect class="cls-1" x="460.53" y="808.17" width="22.33" height="22.33"/>
  <rect class="cls-1" x="509.49" y="832.77" width="22.33" height="22.33"/>
  <rect class="cls-1" x="485.37" y="832.77" width="22.33" height="22.33"/>
  <rect class="cls-1" x="461.09" y="832.77" width="22.33" height="22.33"/>
  <rect class="cls-1" x="509.49" y="857.37" width="22.33" height="22.33"/>
  <rect class="cls-1" x="485.37" y="857.37" width="22.33" height="22.33"/>
  <rect class="cls-1" x="461.09" y="857.37" width="22.33" height="22.33"/>
  <rect class="cls-1" x="512.7" y="881.65" width="22.33" height="22.33"/>
  <rect class="cls-1" x="488.59" y="881.65" width="22.33" height="22.33"/>
  <rect class="cls-1" x="464.31" y="881.65" width="22.33" height="22.33"/>
  <rect class="cls-1" x="493.78" y="905.92" width="22.33" height="22.33"/>
  <rect class="cls-1" x="469.66" y="905.92" width="22.33" height="22.33"/>
  <rect class="cls-1" x="474.92" y="929.87" width="22.33" height="22.33"/>
  <rect class="cls-1" x="498.88" y="929.87" width="22.33" height="22.33"/>
  <rect class="cls-1" x="517.65" y="905.92" width="22.33" height="22.33"/>
  <rect class="cls-1" x="522.83" y="930.2" width="22.33" height="22.33"/>
  <rect class="cls-1" x="482.71" y="587.41" width="22.33" height="22.33"/>
  <rect class="cls-1" x="458.6" y="587.41" width="22.33" height="22.33"/>
  <rect class="cls-1" x="538" y="563.46" width="22.33" height="22.33"/>
  <rect class="cls-1" x="513.4" y="563.46" width="22.33" height="22.33"/>
  <rect class="cls-1" x="489.28" y="563.46" width="22.33" height="22.33"/>
  <rect class="cls-1" x="440.67" y="563.46" width="22.33" height="22.33"/>
  <rect class="cls-1" x="465.17" y="563.46" width="22.33" height="22.33"/>
  <rect class="cls-1" x="543.96" y="538.79" width="22.33" height="22.33"/>
  <rect class="cls-1" x="519.36" y="538.79" width="22.33" height="22.33"/>
  <rect class="cls-1" x="495.25" y="538.79" width="22.33" height="22.33"/>
  <rect class="cls-1" x="471.62" y="538.79" width="22.33" height="22.33"/>
  <rect class="cls-1" x="830.52" y="98.9" width="22.33" height="22.33"/>
  <rect class="cls-1" x="810.13" y="123.5" width="22.33" height="22.33"/>
  <rect class="cls-1" x="806.4" y="98.9" width="22.33" height="22.33"/>
  <rect class="cls-1" x="814.82" y="74.3" width="22.33" height="22.33"/>
  <rect class="cls-1" x="786.01" y="123.5" width="22.33" height="22.33"/>
  <rect class="cls-1" x="782.29" y="98.9" width="22.33" height="22.33"/>
  <rect class="cls-1" x="757.69" y="98.9" width="22.33" height="22.33"/>
  <rect class="cls-1" x="761.9" y="123.5" width="22.33" height="22.33"/>
  <rect class="cls-1" x="737.3" y="123.5" width="22.33" height="22.33"/>
  <rect class="cls-1" x="713.18" y="123.5" width="22.33" height="22.33"/>
  <rect class="cls-1" x="689.07" y="123.5" width="22.33" height="22.33"/>
  <rect class="cls-1" x="664.79" y="123.5" width="22.33" height="22.33"/>
  <rect class="cls-1" x="643.59" y="148.1" width="22.33" height="22.33"/>
  <rect class="cls-1" x="619.64" y="148.1" width="22.33" height="22.33"/>
  <rect class="cls-1" x="595.68" y="148.1" width="22.33" height="22.33"/>
  <rect class="cls-1" x="629.83" y="172.7" width="22.33" height="22.33"/>
  <rect class="cls-1" x="605.88" y="172.7" width="22.33" height="22.33"/>
  <rect class="cls-1" x="581.93" y="172.7" width="22.33" height="22.33"/>
  <g>
    <rect class="cls-1" x="847.35" y="172.7" width="22.33" height="22.33"/>
    <rect class="cls-1" x="840.88" y="197.3" width="22.33" height="22.33"/>
    <rect class="cls-1" x="834.4" y="148.1" width="22.33" height="22.33"/>
    <rect class="cls-1" x="810.29" y="148.1" width="22.33" height="22.33"/>
    <rect class="cls-1" x="786.01" y="148.1" width="22.33" height="22.33"/>
    <rect class="cls-1" x="761.41" y="148.1" width="22.33" height="22.33"/>
    <rect class="cls-1" x="823.24" y="172.7" width="22.33" height="22.33"/>
    <rect class="cls-1" x="799.12" y="172.7" width="22.33" height="22.33"/>
    <rect class="cls-1" x="774.84" y="172.7" width="22.33" height="22.33"/>
    <rect class="cls-1" x="750.24" y="172.7" width="22.33" height="22.33"/>
    <rect class="cls-1" x="737.94" y="148.1" width="22.33" height="22.33"/>
    <rect class="cls-1" x="713.99" y="148.1" width="22.33" height="22.33"/>
    <rect class="cls-1" x="726.78" y="172.7" width="22.33" height="22.33"/>
    <rect class="cls-1" x="703.47" y="172.7" width="22.33" height="22.33"/>
    <rect class="cls-1" x="666.89" y="148.1" width="22.33" height="22.33"/>
    <rect class="cls-1" x="679.36" y="172.7" width="22.33" height="22.33"/>
    <rect class="cls-1" x="654.76" y="172.7" width="22.33" height="22.33"/>
    <rect class="cls-1" x="690.52" y="148.1" width="22.33" height="22.33"/>
  </g>
  <rect class="cls-1" x="831.65" y="221.9" width="22.33" height="22.33"/>
  <rect class="cls-1" x="816.92" y="197.3" width="22.33" height="22.33"/>
  <rect class="cls-1" x="792.81" y="197.3" width="22.33" height="22.33"/>
  <rect class="cls-1" x="768.53" y="197.3" width="22.33" height="22.33"/>
  <rect class="cls-1" x="743.93" y="197.3" width="22.33" height="22.33"/>
  <rect class="cls-1" x="807.54" y="221.9" width="22.33" height="22.33"/>
  <rect class="cls-1" x="783.42" y="221.9" width="22.33" height="22.33"/>
  <rect class="cls-1" x="759.15" y="221.9" width="22.33" height="22.33"/>
  <rect class="cls-1" x="734.54" y="221.9" width="22.33" height="22.33"/>
  <rect class="cls-1" x="720.46" y="197.3" width="22.33" height="22.33"/>
  <rect class="cls-1" x="696.51" y="197.3" width="22.33" height="22.33"/>
  <rect class="cls-1" x="711.08" y="221.9" width="22.33" height="22.33"/>
  <rect class="cls-1" x="687.77" y="221.9" width="22.33" height="22.33"/>
  <rect class="cls-1" x="649.41" y="197.3" width="22.33" height="22.33"/>
  <rect class="cls-1" x="663.66" y="221.9" width="22.33" height="22.33"/>
  <rect class="cls-1" x="639.06" y="221.9" width="22.33" height="22.33"/>
  <rect class="cls-1" x="832.22" y="271.1" width="22.33" height="22.33"/>
  <rect class="cls-1" x="807.54" y="271.1" width="22.33" height="22.33"/>
  <rect class="cls-1" x="832.22" y="246.5" width="22.33" height="22.33"/>
  <rect class="cls-1" x="808.1" y="246.5" width="22.33" height="22.33"/>
  <rect class="cls-1" x="783.99" y="246.5" width="22.33" height="22.33"/>
  <rect class="cls-1" x="759.71" y="246.5" width="22.33" height="22.33"/>
  <rect class="cls-1" x="735.11" y="246.5" width="22.33" height="22.33"/>
  <rect class="cls-1" x="711.64" y="246.5" width="22.33" height="22.33"/>
  <rect class="cls-1" x="688.34" y="246.5" width="22.33" height="22.33"/>
  <rect class="cls-1" x="664.22" y="246.5" width="22.33" height="22.33"/>
  <rect class="cls-1" x="639.62" y="246.5" width="22.33" height="22.33"/>
  <rect class="cls-1" x="673.04" y="197.3" width="22.33" height="22.33"/>
  <rect class="cls-1" x="625.95" y="197.3" width="22.33" height="22.33"/>
  <rect class="cls-1" x="601.99" y="197.3" width="22.33" height="22.33"/>
  <rect class="cls-1" x="554.9" y="197.3" width="22.33" height="22.33"/>
  <rect class="cls-1" x="578.53" y="197.3" width="22.33" height="22.33"/>
  <rect class="cls-1" x="614.29" y="221.9" width="22.33" height="22.33"/>
  <rect class="cls-1" x="590.34" y="221.9" width="22.33" height="22.33"/>
  <rect class="cls-1" x="543.24" y="221.9" width="22.33" height="22.33"/>
  <rect class="cls-1" x="566.87" y="221.9" width="22.33" height="22.33"/>
  <rect class="cls-1" x="614.29" y="246.5" width="22.33" height="22.33"/>
  <rect class="cls-1" x="590.34" y="246.5" width="22.33" height="22.33"/>
  <rect class="cls-1" x="543.24" y="246.5" width="22.33" height="22.33"/>
  <rect class="cls-1" x="519.29" y="246.5" width="22.33" height="22.33"/>
  <rect class="cls-1" x="566.87" y="246.5" width="22.33" height="22.33"/>
  <rect class="cls-1" x="590.42" y="271.1" width="22.33" height="22.33"/>
  <rect class="cls-1" x="543.33" y="271.1" width="22.33" height="22.33"/>
  <rect class="cls-1" x="519.37" y="271.1" width="22.33" height="22.33"/>
  <rect class="cls-1" x="566.96" y="271.1" width="22.33" height="22.33"/>
  <rect class="cls-1" x="590.42" y="295.7" width="22.33" height="22.33"/>
  <rect class="cls-1" x="543.33" y="295.7" width="22.33" height="22.33"/>
  <rect class="cls-1" x="519.37" y="295.7" width="22.33" height="22.33"/>
  <rect class="cls-1" x="566.96" y="295.7" width="22.33" height="22.33"/>
  <rect class="cls-1" x="565.64" y="319.98" width="22.33" height="22.33"/>
  <rect class="cls-1" x="518.54" y="319.98" width="22.33" height="22.33"/>
  <rect class="cls-1" x="542.17" y="319.98" width="22.33" height="22.33"/>
  <rect class="cls-1" x="565.24" y="344.58" width="22.33" height="22.33"/>
  <rect class="cls-1" x="518.14" y="344.58" width="22.33" height="22.33"/>
  <rect class="cls-1" x="541.77" y="344.58" width="22.33" height="22.33"/>
  <rect class="cls-1" x="564.83" y="369.18" width="22.33" height="22.33"/>
  <rect class="cls-1" x="517.73" y="369.18" width="22.33" height="22.33"/>
  <rect class="cls-1" x="541.36" y="369.18" width="22.33" height="22.33"/>
  <rect class="cls-1" x="568.33" y="393.46" width="22.33" height="22.33"/>
  <rect class="cls-1" x="521.23" y="393.46" width="22.33" height="22.33"/>
  <rect class="cls-1" x="544.86" y="393.46" width="22.33" height="22.33"/>
  <rect class="cls-1" x="537.26" y="417.73" width="22.33" height="22.33"/>
  <rect class="cls-1" x="805.29" y="319.98" width="22.33" height="22.33"/>
  <rect class="cls-1" x="805.78" y="344.58" width="22.33" height="22.33"/>
  <rect class="cls-1" x="807.37" y="295.7" width="22.33" height="22.33"/>
  <rect class="cls-1" x="780.93" y="319.98" width="22.33" height="22.33"/>
  <rect class="cls-1" x="782.17" y="271.1" width="22.33" height="22.33"/>
  <rect class="cls-1" x="758.05" y="271.1" width="22.33" height="22.33"/>
  <rect class="cls-1" x="733.78" y="271.1" width="22.33" height="22.33"/>
  <rect class="cls-1" x="709.18" y="271.1" width="22.33" height="22.33"/>
  <rect class="cls-1" x="783.26" y="295.7" width="22.33" height="22.33"/>
  <rect class="cls-1" x="759.15" y="295.7" width="22.33" height="22.33"/>
  <rect class="cls-1" x="734.87" y="295.7" width="22.33" height="22.33"/>
  <rect class="cls-1" x="710.27" y="295.7" width="22.33" height="22.33"/>
  <rect class="cls-1" x="685.71" y="271.1" width="22.33" height="22.33"/>
  <rect class="cls-1" x="661.76" y="271.1" width="22.33" height="22.33"/>
  <rect class="cls-1" x="686.8" y="295.7" width="22.33" height="22.33"/>
  <rect class="cls-1" x="663.5" y="295.7" width="22.33" height="22.33"/>
  <rect class="cls-1" x="614.66" y="271.1" width="22.33" height="22.33"/>
  <rect class="cls-1" x="639.38" y="295.7" width="22.33" height="22.33"/>
  <rect class="cls-1" x="614.78" y="295.7" width="22.33" height="22.33"/>
  <rect class="cls-1" x="638.29" y="271.1" width="22.33" height="22.33"/>
  <rect class="cls-1" x="781.66" y="344.58" width="22.33" height="22.33"/>
  <rect class="cls-1" x="756.98" y="319.98" width="22.33" height="22.33"/>
  <rect class="cls-1" x="732.87" y="319.98" width="22.33" height="22.33"/>
  <rect class="cls-1" x="708.59" y="319.98" width="22.33" height="22.33"/>
  <rect class="cls-1" x="683.99" y="319.98" width="22.33" height="22.33"/>
  <rect class="cls-1" x="757.55" y="344.58" width="22.33" height="22.33"/>
  <rect class="cls-1" x="733.43" y="344.58" width="22.33" height="22.33"/>
  <rect class="cls-1" x="709.16" y="344.58" width="22.33" height="22.33"/>
  <rect class="cls-1" x="684.56" y="344.58" width="22.33" height="22.33"/>
  <rect class="cls-1" x="660.52" y="319.98" width="22.33" height="22.33"/>
  <rect class="cls-1" x="636.57" y="319.98" width="22.33" height="22.33"/>
  <rect class="cls-1" x="661.09" y="344.58" width="22.33" height="22.33"/>
  <rect class="cls-1" x="637.78" y="344.58" width="22.33" height="22.33"/>
  <rect class="cls-1" x="589.47" y="319.98" width="22.33" height="22.33"/>
  <rect class="cls-1" x="613.67" y="344.58" width="22.33" height="22.33"/>
  <rect class="cls-1" x="589.07" y="344.58" width="22.33" height="22.33"/>
  <rect class="cls-1" x="781.66" y="369.18" width="22.33" height="22.33"/>
  <rect class="cls-1" x="757.55" y="369.18" width="22.33" height="22.33"/>
  <rect class="cls-1" x="733.43" y="369.18" width="22.33" height="22.33"/>
  <rect class="cls-1" x="709.16" y="369.18" width="22.33" height="22.33"/>
  <rect class="cls-1" x="684.56" y="369.18" width="22.33" height="22.33"/>
  <rect class="cls-1" x="661.09" y="369.18" width="22.33" height="22.33"/>
  <rect class="cls-1" x="637.78" y="369.18" width="22.33" height="22.33"/>
  <rect class="cls-1" x="613.67" y="369.18" width="22.33" height="22.33"/>
  <rect class="cls-1" x="589.07" y="369.18" width="22.33" height="22.33"/>
  <rect class="cls-1" x="760.76" y="393.46" width="22.33" height="22.33"/>
  <rect class="cls-1" x="736.65" y="393.46" width="22.33" height="22.33"/>
  <rect class="cls-1" x="712.37" y="393.46" width="22.33" height="22.33"/>
  <rect class="cls-1" x="687.77" y="393.46" width="22.33" height="22.33"/>
  <rect class="cls-1" x="664.3" y="393.46" width="22.33" height="22.33"/>
  <rect class="cls-1" x="641" y="393.46" width="22.33" height="22.33"/>
  <rect class="cls-1" x="616.88" y="393.46" width="22.33" height="22.33"/>
  <rect class="cls-1" x="592.28" y="393.46" width="22.33" height="22.33"/>
  <rect class="cls-1" x="729.97" y="417.41" width="22.33" height="22.33"/>
  <rect class="cls-1" x="705.86" y="417.41" width="22.33" height="22.33"/>
  <rect class="cls-1" x="681.58" y="417.41" width="22.33" height="22.33"/>
  <rect class="cls-1" x="656.98" y="417.41" width="22.33" height="22.33"/>
  <rect class="cls-1" x="633.51" y="417.41" width="22.33" height="22.33"/>
  <rect class="cls-1" x="610.21" y="417.41" width="22.33" height="22.33"/>
  <rect class="cls-1" x="586.09" y="417.41" width="22.33" height="22.33"/>
  <rect class="cls-1" x="561.49" y="417.41" width="22.33" height="22.33"/>
  <rect class="cls-1" x="711.12" y="441.36" width="22.33" height="22.33"/>
  <rect class="cls-1" x="687" y="441.36" width="22.33" height="22.33"/>
  <rect class="cls-1" x="662.89" y="441.36" width="22.33" height="22.33"/>
  <rect class="cls-1" x="638.61" y="441.36" width="22.33" height="22.33"/>
  <rect class="cls-1" x="614.01" y="441.36" width="22.33" height="22.33"/>
  <rect class="cls-1" x="590.54" y="441.36" width="22.33" height="22.33"/>
  <rect class="cls-1" x="567.24" y="441.36" width="22.33" height="22.33"/>
  <rect class="cls-1" x="543.12" y="441.36" width="22.33" height="22.33"/>
  <rect class="cls-1" x="533.96" y="465.64" width="22.33" height="22.33"/>
  <rect class="cls-1" x="613.1" y="319.98" width="22.33" height="22.33"/>
  <rect class="cls-1" x="733.57" y="98.9" width="22.33" height="22.33"/>
  <rect class="cls-1" x="640.19" y="123.5" width="22.33" height="22.33"/>
  <rect class="cls-1" x="616.07" y="123.5" width="22.33" height="22.33"/>
  <rect class="cls-1" x="684.96" y="98.9" width="22.33" height="22.33"/>
  <rect class="cls-1" x="660.68" y="98.9" width="22.33" height="22.33"/>
  <rect class="cls-1" x="709.46" y="98.9" width="22.33" height="22.33"/>
  <rect class="cls-1" x="790.7" y="74.3" width="22.33" height="22.33"/>
  <rect class="cls-1" x="766.1" y="74.3" width="22.33" height="22.33"/>
  <rect class="cls-1" x="741.99" y="74.3" width="22.33" height="22.33"/>
  <rect class="cls-1" x="693.38" y="74.3" width="22.33" height="22.33"/>
  <rect class="cls-1" x="717.87" y="74.3" width="22.33" height="22.33"/>
  <rect class="cls-1" x="863.21" y="74.3" width="22.33" height="22.33"/>
  <rect class="cls-1" x="839.26" y="74.3" width="22.33" height="22.33"/>
  <rect class="cls-1" x="815.87" y="49.7" width="22.33" height="22.33"/>
  <rect class="cls-1" x="791.76" y="49.7" width="22.33" height="22.33"/>
  <rect class="cls-1" x="767.16" y="49.7" width="22.33" height="22.33"/>
  <rect class="cls-1" x="743.04" y="49.7" width="22.33" height="22.33"/>
  <rect class="cls-1" x="864.26" y="49.7" width="22.33" height="22.33"/>
  <rect class="cls-1" x="840.31" y="49.7" width="22.33" height="22.33"/>
  <rect class="cls-1" x="819.76" y="25.1" width="22.33" height="22.33"/>
  <rect class="cls-1" x="795.64" y="25.1" width="22.33" height="22.33"/>
  <rect class="cls-1" x="868.15" y="25.1" width="22.33" height="22.33"/>
  <rect class="cls-1" x="844.19" y="25.1" width="22.33" height="22.33"/>
  <rect class="cls-1" x="872.68" y=".5" width="22.33" height="22.33"/>
  <rect class="cls-1" x="848.73" y=".5" width="22.33" height="22.33"/>
  <rect class="cls-1" x="857.22" y="123.5" width="22.33" height="22.33"/>
  <rect class="cls-1" x="833.76" y="123.5" width="22.33" height="22.33"/>
  <rect class="cls-1" x="858.52" y="148.1" width="22.33" height="22.33"/>
  <rect class="cls-1" x="854.15" y="98.9" width="22.33" height="22.33"/>
  <rect class="cls-1" x="677.01" y="465.32" width="22.33" height="22.33"/>
  <rect class="cls-1" x="653.06" y="465.32" width="22.33" height="22.33"/>
  <rect class="cls-1" x="629.1" y="465.32" width="22.33" height="22.33"/>
  <rect class="cls-1" x="605.15" y="465.32" width="22.33" height="22.33"/>
  <rect class="cls-1" x="581.2" y="465.32" width="22.33" height="22.33"/>
  <rect class="cls-1" x="557.24" y="465.32" width="22.33" height="22.33"/>
  <rect class="cls-1" x="563.02" y="489.92" width="22.33" height="22.33"/>
  <rect class="cls-1" x="587.17" y="489.92" width="22.33" height="22.33"/>
  <rect class="cls-1" x="611.4" y="489.92" width="22.33" height="22.33"/>
  <rect class="cls-1" x="539.16" y="489.92" width="22.33" height="22.33"/>
  <rect class="cls-1" x="515.85" y="489.92" width="22.33" height="22.33"/>
</svg>